<svg xmlns="http://www.w3.org/2000/svg" width="566.615" height="93.938" viewBox="1638 1437 566.615 93.938"><g data-name="Group 4562"><path d="M1932.95 1438.787h8.94V1437h-31.283v1.787h8.95v85.82l13.393-13.422v-72.398Z" fill="#003a5d" fill-rule="evenodd" data-name="Path 11188"/><path d="M2204.615 1478.352v-1.63h-7.879v-13.502c-1.113.45-3.311 1.588-6.366 1.588-3.073 0-4.997-1.137-6.115-1.588v13.503h-8.145v1.629h8.145v35.731c0 1.356.078 2.831.215 4.419.159 1.568.75 3.044 1.749 4.402 1.014 1.353 2.611 2.471 4.747 3.373 2.145.898 3.891 1.356 7.821 1.356 1.406 0 2.92-.132 4.491-.387.45-.087.9-.186 1.337-.297v-1.674a7.991 7.991 0 0 1-1.885.218c-1.296 0-2.322-.23-3.105-.69a4.355 4.355 0 0 1-1.803-1.847 8.333 8.333 0 0 1-.847-2.651 20.09 20.09 0 0 1-.239-3.149v-38.804h7.88Zm-39.283 24.462c-2.142-2.375-5.281-4.27-9.412-5.725l-9.733-3.537c-1.906-.69-3.437-1.394-4.59-2.124-1.142-.705-1.988-1.433-2.516-2.156-.532-.72-.878-1.643-1.036-2.333-.139-.69-.217-1.304-.217-1.83 0-2.59 1.043-4.768 3.142-6.107 2.102-1.335 4.41-2 6.926-2 2.375 0 4.359.352 5.973 1.078 1.603.732 2.96 1.732 4.063 2.985 1.118 1.26 2.052 2.73 2.859 4.416a108.701 108.701 0 0 1 2.36 5.267h1.49v-13.98h-1.614a5.044 5.044 0 0 1-.566 1.04c-.235.29-.766.457-1.6.457-.462 0-1.09-.167-1.896-.457a51.502 51.502 0 0 0-2.742-.985c-1.041-.354-2.183-.663-3.44-.983a18.035 18.035 0 0 0-4.082-.45c-2.745 0-5.281.428-7.615 1.319-2.34.883-4.317 2.062-5.95 3.555a15.938 15.938 0 0 0-3.856 5.217c-.915 1.982-1.362 3.868-1.362 6.091 0 2.058.348 3.632 1.04 5.121.68 1.495 1.525 2.77 2.562 3.85 1.03 1.056 2.168 1.924 3.387 2.568 1.205.65 2.37 1.179 3.433 1.547l9.282 3.44c2.066.762 3.695 1.518 4.867 2.238 1.18.731 2.085 1.67 2.694 2.435.61.769 1.021 1.513 1.212 2.234.181.73.272 1.444.272 2.121 0 2.225-.388 4.123-1.194 5.3-.805 1.181-1.76 2.062-2.863 2.633-1.124.588-2.24.906-3.372.986a44.273 44.273 0 0 1-2.75.115c-2.695 0-4.931-.47-6.774-1.43-1.822-.967-3.395-2.2-4.693-3.736a23.957 23.957 0 0 1-3.38-5.259c-.961-2.01-1.9-4.064-2.81-6.206h-1.602v16.631h1.602c.225-.606.474-1.038.746-1.257.255-.238.707-.354 1.32-.354.692 0 1.635.162 2.866.458 1.22.31 2.576.683 4.066 1.086 1.488.415 3.042.796 4.628 1.082 1.615.326 3.106.48 4.475.48 2.513 0 4.971-.392 7.342-1.162 2.363-.767 4.446-1.845 6.25-3.258a16.617 16.617 0 0 0 4.336-5.168c1.125-2.011 1.664-4.077 1.664-6.61 0-3.658-1.06-6.265-3.192-8.643Zm-81.235-2.236c.257-12.919 4.798-23.207 13.204-23.207 8.424 0 9.155 10.288 9.177 23.207h-22.381Zm34.606 1.633v-.51c0-14.334-7.045-25.952-21.402-25.952-14.333 0-25.438 11.618-25.438 25.952 0 14.355 11.105 25.973 25.438 25.973 10.13 0 17.628-5.813 21.174-14.257h-1.772c-3.375 7.525-10.195 12.628-19.402 12.628-9.537 0-13.128-10.621-13.228-23.834h34.63Zm-73.207-25.443v1.632h9.03l-13.091 33.296-14.865-33.296h8.128v-1.632h-28.918v1.632h7.4l22.424 49.802h.9l19.947-49.802h9.403v-1.632h-20.358Zm-43.441 48.253v-31.967c-.275-9.61-8.147-17.305-17.812-17.305-7.893 0-15.214 5.57-17.824 13.342v-12.323h-20.357v1.632h8.145v46.62l12.212-12.211v-13.062c0-12.853 6.849-21.452 15.312-21.452 5.483 0 8.104 3.144 8.104 16.81v29.916h-8.145v1.625h28.507v-1.625h-8.142Zm-55.993 1.625h28.502v-1.625h-28.502v1.625Z" fill="#003a5d" fill-rule="evenodd" data-name="Path 11189"/><path d="M1638 1453.794v12.958l11.427-11.439h13.54v73.182l11.428-11.428v-61.754h15.248l11.428 11.439v-12.958H1638Z" fill="#003a5d" fill-rule="evenodd" data-name="Path 11191"/><path d="M1867.372 1505.575c.239-12.084 4.5-21.71 12.365-21.71 7.882 0 8.56 9.626 8.578 21.71h-20.943Zm32.39 1.527v-.476c0-13.41-6.595-24.29-20.025-24.29-13.414 0-23.812 10.88-23.812 24.29 0 13.427 10.398 24.312 23.812 24.312 9.479 0 16.496-5.445 19.803-13.346h-1.652c-3.16 7.04-9.535 11.815-18.151 11.815-8.93 0-12.293-9.94-12.383-22.305h32.407Zm-79.294 22.305c-8.947 0-12.767-10.193-12.767-22.781 0-12.567 3.82-22.76 12.767-22.76 8.196 0 11.447 11.812 11.447 22.76 0 10.966-3.252 22.781-11.447 22.781Zm23.35-75.656h-19.052v1.525h7.625v40.08c-1.56-7.355-5.088-13.02-11.923-13.02-15.706 0-24.287 10.482-24.287 24.29 0 13.823 7.623 24.312 24.287 24.312 6.835 0 10.363-5.684 11.923-13.026v10.541l11.428-11.422v-63.28Zm7.625 76.23v-1.528h-19.052v1.527h19.052Zm-80.212-12.918c0 2.034-.202 3.787-.624 5.218-.423 1.45-.992 2.609-1.69 3.491-.698.876-1.489 1.526-2.372 1.946a6.14 6.14 0 0 1-2.699.62c-1.617 0-3.068-.361-3.987-1.095a7.075 7.075 0 0 1-2.058-2.683 10.89 10.89 0 0 1-.844-3.289 30.537 30.537 0 0 1-.167-2.94c0-2.115.332-3.844 1.011-5.179.662-1.347 1.73-2.467 2.776-3.386a14.585 14.585 0 0 1 3.582-2.264c1.341-.604 2.683-1.204 4.023-1.852.975-.488 1.674-.932 2.058-1.317.386-.394.644-.796.79-1.218h.203v13.948Zm18.482 9.605a7.857 7.857 0 0 1-1.744 1.474c-.606.345-.974.536-1.894.536-1.542 0-2.33-.522-2.718-1.551-.385-1-.57-2.187-.57-3.523v-23.389c0-.867-.074-1.616-.22-2.3-.79-4.349-3.821-8.796-8.929-11.57-5.86-3.18-17.471-3.914-22.91-3.79v1.529c7.277.019 10.822 1.38 14.791 3.62 4.059 2.307 5.712 6.12 5.712 8.894v1.352c0 1.327-.183 2.43-.568 3.28-.386.838-1.085 1.591-2.06 2.255-.99.68-2.385 1.307-4.168 1.909-1.801.591-3.768 1.326-6.651 2.171-1.746.55-3.087 1.14-4.74 1.722-1.655.612-2.94 1.38-4.225 2.338-1.305.941-2.187 2.11-2.996 3.477-.808 1.372-1.01 3.08-1.01 5.118 0 1.962.256 3.638 1.175 5.016.92 1.38 1.93 2.443 3.4 3.217 1.488.77 2.903 1.339 4.665 1.688 1.764.35 3.106.53 4.796.53 3.73 0 6.192-.487 8.177-1.49 1.965-.962 3.507-2.874 4.63-5.689h.219c.423 2.255 1.102 4.025 2.83 5.268 1.727 1.278 3.62 1.912 7.22 1.912 1.617 0 3.012.063 4.832-.417 1.837-.476 2.83-1.321 3.895-2.65l-.937-.937Zm-64.54-19.58c0-9.701 5.456-15.858 8.654-18.229 1.6-1.178 3.4-2.409 6.027-3.318l9.149 9.162v-12.125c-8.286-.104-13.302 1.566-16.829 3.6-2.28 1.324-4.888 3.103-7 6.03v-8.709h-19.051v1.523h7.624v43.394l11.427-11.43v-9.897Zm-19.05 22.851h26.675v-1.523h-26.675v1.523Z" fill="#003a5d" fill-rule="evenodd" data-name="Path 11192"/></g></svg>