<svg xmlns="http://www.w3.org/2000/svg" width="11.952" height="11.926" viewBox="1.932 1.318 11.952 11.926"><g data-name="XMLID_801_"><path d="M4.715 5.15h-2.4a.193.193 0 0 0-.193.193v7.708c0 .106.087.193.193.193h2.4a.193.193 0 0 0 .192-.193V5.343a.193.193 0 0 0-.192-.193Z" fill="#0e1622" fill-rule="evenodd" data-name="XMLID_802_"/><path d="M3.516 1.318c-.873 0-1.584.71-1.584 1.582a1.584 1.584 0 0 0 3.165 0c0-.873-.709-1.582-1.581-1.582Z" fill="#0e1622" fill-rule="evenodd" data-name="XMLID_803_"/><path d="M10.818 4.958c-.964 0-1.677.415-2.109.885v-.5a.193.193 0 0 0-.192-.193H6.219a.193.193 0 0 0-.193.193v7.708c0 .106.086.193.193.193h2.394a.193.193 0 0 0 .193-.193V9.237c0-1.285.349-1.786 1.245-1.786.975 0 1.053.803 1.053 1.852v3.748c0 .106.086.193.193.193h2.395a.193.193 0 0 0 .192-.193V8.823c0-1.911-.364-3.865-3.066-3.865Z" fill="#0e1622" fill-rule="evenodd" data-name="XMLID_804_"/></g></svg>