<svg xmlns="http://www.w3.org/2000/svg" width="119.205" height="66.007"><g data-name="_1698267048688"><path d="M58.186 65.006h5.75v-.33h-5.75v.33Z" fill="#fff" fill-rule="evenodd" data-name="Path 11187"/><path d="M62.052 46.62h1.88v-.377h-6.58v.376h1.882v18.056l2.818-2.824V46.619Z" fill="#fff" fill-rule="evenodd" data-name="Path 11188"/><path d="M119.205 54.941V54.6h-1.657v-2.841c-.235.095-.697.334-1.34.334-.645 0-1.05-.24-1.286-.334v2.84h-1.714v.343h1.714v7.518c0 .285.016.595.045.929.033.33.158.64.368.926.214.285.549.52.999.71.451.189.818.285 1.645.285.296 0 .615-.028.945-.081.095-.019.19-.04.281-.063v-.352c-.124.03-.256.045-.396.045-.273 0-.489-.047-.654-.144a.92.92 0 0 1-.379-.389 1.745 1.745 0 0 1-.178-.557 4.286 4.286 0 0 1-.05-.664v-8.163h1.657Zm-8.264 5.147c-.45-.5-1.11-.899-1.98-1.205l-2.048-.744a5.04 5.04 0 0 1-.966-.447c-.24-.148-.418-.301-.529-.454a1.407 1.407 0 0 1-.218-.49 2.002 2.002 0 0 1-.046-.385c0-.545.22-1.004.661-1.285a2.66 2.66 0 0 1 1.457-.42c.5 0 .917.073 1.257.226.337.154.622.364.855.628.235.265.431.574.601.93.17.35.336.723.497 1.107h.314v-2.942h-.34a.997.997 0 0 1-.12.22c-.049.06-.16.096-.336.096-.097 0-.229-.035-.398-.097a9.843 9.843 0 0 0-1.3-.413 3.772 3.772 0 0 0-.86-.095c-.578 0-1.11.09-1.602.278a3.827 3.827 0 0 0-1.252.748 3.355 3.355 0 0 0-.81 1.097 2.914 2.914 0 0 0-.288 1.282c0 .432.073.763.219 1.077.144.314.321.583.539.81.217.222.456.405.713.54.254.137.498.248.722.326l1.953.723c.434.16.777.32 1.024.47.248.155.438.352.567.513.127.162.214.318.254.47.039.154.058.304.058.447 0 .467-.082.867-.252 1.115-.169.248-.37.433-.602.554-.236.124-.471.19-.71.207a8.89 8.89 0 0 1-.578.024c-.567 0-1.038-.099-1.425-.3a3.293 3.293 0 0 1-.988-.787 5.045 5.045 0 0 1-.71-1.106 31.31 31.31 0 0 1-.591-1.306h-.337v3.499h.337c.046-.128.1-.218.157-.264.054-.05.148-.075.277-.075.146 0 .344.034.603.097.257.065.542.143.855.228.314.087.64.167.974.228.34.068.654.1.941.1.53 0 1.046-.083 1.545-.244a4.197 4.197 0 0 0 1.315-.685c.376-.297.681-.66.913-1.087.236-.424.35-.859.35-1.39 0-.77-.223-1.32-.672-1.82Zm-17.09-.47c.053-2.719 1.01-4.884 2.777-4.884 1.772 0 1.927 2.165 1.93 4.883h-4.707Zm7.28.343v-.107c0-3.016-1.483-5.46-4.503-5.46-3.015 0-5.352 2.444-5.352 5.46 0 3.019 2.337 5.463 5.352 5.463 2.132 0 3.709-1.222 4.455-2.999h-.373c-.71 1.583-2.145 2.657-4.082 2.657-2.006 0-2.762-2.235-2.782-5.014h7.285Zm-15.402-5.354v.344h1.9l-2.754 7.005-3.127-7.005h1.71v-.344h-6.084v.344h1.557l4.717 10.478h.19l4.196-10.478h1.979v-.344h-4.284ZM76.59 64.76v-6.726a3.749 3.749 0 0 0-3.746-3.64c-1.66 0-3.2 1.171-3.75 2.806v-2.593H64.81v.344h1.713v9.809l2.569-2.57v-2.748c0-2.704 1.441-4.513 3.221-4.513 1.154 0 1.706.662 1.706 3.537v6.294h-1.714v.342h5.998v-.342H76.59Zm-11.778.342h5.996v-.342H64.81v.342Z" fill="#fff" fill-rule="evenodd" data-name="Path 11189"/><path d="M3.649 65.812H9.26v-.32H3.649v.32Z" fill="#fff" fill-rule="evenodd" data-name="Path 11190"/><path d="M0 49.775v2.727l2.404-2.406h2.849V65.49l2.404-2.404V50.096h3.208l2.404 2.406v-2.727H0Z" fill="#fff" fill-rule="evenodd" data-name="Path 11191"/><path d="M48.256 60.67c.05-2.541.947-4.566 2.6-4.566 1.66 0 1.802 2.025 1.806 4.567h-4.406Zm6.814.322v-.1c0-2.82-1.388-5.11-4.213-5.11-2.822 0-5.01 2.29-5.01 5.11 0 2.825 2.188 5.115 5.01 5.115 1.994 0 3.47-1.146 4.166-2.808h-.347c-.665 1.482-2.006 2.486-3.82 2.486-1.877 0-2.585-2.091-2.604-4.693h6.818Zm-16.682 4.693c-1.882 0-2.686-2.145-2.686-4.793 0-2.644.804-4.788 2.686-4.788 1.724 0 2.408 2.485 2.408 4.788 0 2.307-.684 4.793-2.408 4.793ZM43.3 49.768h-4.009v.32h1.604v8.433c-.328-1.547-1.07-2.739-2.508-2.739-3.304 0-5.11 2.205-5.11 5.11 0 2.908 1.604 5.115 5.11 5.115 1.438 0 2.18-1.196 2.508-2.74v2.217l2.405-2.403V49.768Zm1.604 16.038v-.322h-4.009v.322h4.009Zm-16.876-2.718c0 .428-.042.797-.13 1.098-.09.304-.21.548-.357.734a1.413 1.413 0 0 1-.498.41c-.186.088-.375.13-.568.13-.34 0-.646-.076-.839-.23a1.486 1.486 0 0 1-.433-.565 2.292 2.292 0 0 1-.178-.691 6.433 6.433 0 0 1-.035-.62c0-.445.07-.808.213-1.09.14-.283.364-.518.584-.711.224-.193.475-.352.754-.477.282-.127.564-.253.846-.39.205-.102.352-.196.433-.277a.68.68 0 0 0 .166-.256h.043v2.935Zm3.889 2.02c-.12.133-.244.236-.367.31a.66.66 0 0 1-.399.113c-.324 0-.49-.11-.571-.326a2.07 2.07 0 0 1-.12-.741v-4.921c0-.182-.016-.34-.047-.483-.166-.915-.804-1.851-1.878-2.435-1.233-.669-3.676-.823-4.82-.797v.321c1.53.004 2.277.291 3.112.762.854.485 1.201 1.288 1.201 1.871v.285c0 .279-.038.511-.12.69-.08.177-.227.335-.432.474-.209.143-.502.275-.877.402-.38.124-.793.28-1.4.457-.367.115-.65.24-.997.362-.348.13-.618.29-.889.491-.274.199-.46.445-.63.732-.17.289-.213.648-.213 1.077 0 .413.054.766.248 1.056.193.29.406.513.715.676.313.162.61.282.982.355a4.78 4.78 0 0 0 1.009.112c.784 0 1.302-.102 1.72-.313.413-.203.738-.606.974-1.198h.046c.089.475.232.847.595 1.109.364.268.762.402 1.52.402.34 0 .633.014 1.016-.088.386-.1.595-.278.82-.557l-.198-.198ZM18.34 60.99c0-2.04 1.148-3.336 1.82-3.835.337-.248.715-.507 1.268-.698l1.925 1.928v-2.551c-1.743-.022-2.799.33-3.54.757-.48.28-1.029.653-1.473 1.268v-1.832h-4.008v.32h1.604v9.13l2.404-2.405V60.99Zm-4.008 4.808h5.612v-.32h-5.612v.32Z" fill="#fff" fill-rule="evenodd" data-name="Path 11192"/><path d="M66.34 35.456h7.997v-.457h-6.539l3.922-3.929V9.884h2.617V9.36h-9.155v.524h2.616v25.115H66.34v.457ZM43.255 0v6.723L49.18.79h7.019v37.93h-3.952v.79h13.827v-.79h-9.875l5.924-5.923V.79h7.903l5.923 5.933V0H43.256Z" fill="#fff" fill-rule="evenodd" data-name="Path 11193"/></g></svg>