<svg xmlns="http://www.w3.org/2000/svg" width="14.773" height="14.776"><path d="M14.735 4.344c-.034-.785-.161-1.325-.343-1.792a3.606 3.606 0 0 0-.854-1.31A3.636 3.636 0 0 0 12.23.39c-.47-.182-1.007-.31-1.792-.344C9.647.01 9.395 0 7.389 0 5.383 0 5.132.009 4.344.043 3.56.078 3.02.205 2.552.387a3.605 3.605 0 0 0-1.31.854c-.376.37-.668.817-.852 1.308-.182.47-.31 1.007-.344 1.792C.01 5.132 0 5.383 0 7.39c0 2.007.009 2.258.043 3.046.035.785.162 1.324.344 1.792.187.497.479.941.854 1.31.37.376.817.667 1.308.852.47.182 1.007.309 1.792.344.788.034 1.04.043 3.046.043s2.257-.009 3.045-.043c.785-.035 1.325-.162 1.792-.344a3.78 3.78 0 0 0 2.162-2.162c.182-.47.31-1.007.344-1.792.034-.788.043-1.04.043-3.046s-.003-2.257-.038-3.045Zm-1.33 6.033c-.032.721-.153 1.111-.254 1.37a2.451 2.451 0 0 1-1.403 1.404c-.26.1-.652.222-1.371.254-.78.034-1.013.043-2.985.043-1.971 0-2.208-.009-2.984-.043-.722-.032-1.112-.153-1.371-.254a2.274 2.274 0 0 1-.849-.552 2.297 2.297 0 0 1-.551-.848c-.101-.26-.223-.653-.254-1.371-.035-.78-.044-1.013-.044-2.985 0-1.971.009-2.208.044-2.984.031-.722.153-1.112.254-1.371.118-.32.306-.612.554-.85.24-.245.528-.432.849-.55.26-.101.652-.223 1.37-.254.78-.035 1.014-.044 2.985-.044 1.975 0 2.208.009 2.985.044.721.031 1.111.153 1.37.254.321.118.613.305.85.55.245.24.432.53.55.85.102.26.223.652.255 1.37.034.78.043 1.014.043 2.985 0 1.972-.009 2.203-.043 2.982Zm0 0" fill="#0e1622" fill-rule="evenodd" data-name="Path 11150"/></svg>