<svg xmlns="http://www.w3.org/2000/svg" width="14.776" height="12" viewBox="944.223 4833.653 14.776 12"><g data-name="Mask Group 5" transform="translate(945.034 4832.257)" clip-path="url(&quot;#a&quot;)"><g data-name="twitter-black-shape"><path d="M13.964 2.822a6.042 6.042 0 0 1-1.743.469 2.94 2.94 0 0 0 1.331-1.67c-.6.357-1.24.6-1.922.732a2.92 2.92 0 0 0-2.213-.956c-.837 0-1.551.295-2.142.886a2.919 2.919 0 0 0-.886 2.142c0 .225.025.456.075.694a8.438 8.438 0 0 1-3.483-.933A8.585 8.585 0 0 1 .22 1.95a2.967 2.967 0 0 0-.413 1.528c0 .519.122 1 .366 1.444.244.444.572.803.985 1.078a3.004 3.004 0 0 1-1.37-.385v.038c0 .731.23 1.373.69 1.927a2.98 2.98 0 0 0 1.739 1.045 3.137 3.137 0 0 1-.797.103c-.175 0-.366-.016-.572-.047.194.607.55 1.105 1.069 1.496.519.39 1.106.592 1.762.605a5.93 5.93 0 0 1-3.76 1.293c-.268 0-.512-.012-.73-.037a8.41 8.41 0 0 0 4.65 1.36c1.075 0 2.084-.171 3.028-.512.944-.34 1.75-.797 2.419-1.369a9.16 9.16 0 0 0 1.73-1.973 8.8 8.8 0 0 0 1.083-2.33 8.607 8.607 0 0 0 .346-2.827 6.342 6.342 0 0 0 1.52-1.565Z" fill="#0e1622" fill-rule="evenodd" data-name="Path 11153"/></g></g><defs><clipPath id="a"><path d="M0 0h14v17H0V0z" data-name="Rectangle 1373" transform="translate(-.034 -.294)"/></clipPath></defs></svg>